<?xml version="1.0" standalone="no"?>
<!DOCTYPE svg PUBLIC "-//W3C//DTD SVG 20010904//EN"
 "http://www.w3.org/TR/2001/REC-SVG-20010904/DTD/svg10.dtd">
<svg version="1.0" xmlns="http://www.w3.org/2000/svg"
 width="700.000000pt" height="700.000000pt" viewBox="0 0 700.000000 700.000000"
 preserveAspectRatio="xMidYMid meet">
<metadata>
Created by potrace 1.14, written by Peter Selinger 2001-2017
</metadata>
<g transform="translate(0.000000,700.000000) scale(0.100000,-0.100000)"
fill="#000000" stroke="none">
<path d="M3408 6172 c-50 -30 -62 -72 -54 -196 8 -145 34 -298 101 -586 29
-129 67 -309 84 -400 50 -269 111 -630 111 -653 0 -20 -32 -33 -317 -129 -258
-86 -319 -104 -327 -93 -58 74 -1032 1223 -1034 1220 -2 -2 -14 -50 -26 -107
l-22 -102 -63 149 c-70 165 -86 211 -96 269 -13 78 -94 123 -168 93 -76 -32
-90 -110 -44 -247 14 -42 84 -212 155 -378 l130 -302 -110 -528 c-60 -290
-112 -530 -116 -534 -4 -3 -106 -36 -227 -73 -121 -36 -294 -90 -385 -120 -91
-30 -214 -63 -275 -75 -131 -25 -169 -42 -189 -85 -20 -41 -20 -56 -2 -100 18
-42 69 -75 114 -75 64 0 234 41 415 100 232 75 488 152 492 148 2 -2 -42 -222
-98 -489 l-101 -486 -125 -17 c-136 -18 -162 -29 -195 -85 -23 -39 -15 -88 20
-130 32 -38 74 -46 166 -33 40 6 74 9 76 7 2 -1 -7 -53 -19 -114 -12 -61 -19
-114 -16 -117 7 -7 819 -313 832 -314 6 0 44 161 84 357 41 197 76 360 77 361
2 4 345 62 445 76 l47 7 16 -73 c78 -340 127 -620 161 -922 14 -122 34 -266
44 -321 11 -55 23 -120 27 -145 3 -25 13 -57 20 -72 29 -56 112 -74 171 -38
59 36 72 95 44 207 -28 111 -38 174 -61 383 -32 289 -110 734 -166 954 -8 32
-14 59 -12 61 5 4 231 36 233 33 11 -17 190 -224 196 -226 3 -2 62 64 130 146
l124 149 110 16 c166 25 147 39 174 -121 13 -75 41 -231 62 -347 61 -324 80
-465 88 -655 8 -183 15 -213 60 -254 12 -11 41 -21 68 -23 96 -8 156 64 134
162 -6 27 -16 117 -21 200 -12 173 -31 307 -94 640 -53 286 -80 454 -75 459
11 8 325 54 330 48 3 -4 59 -243 125 -531 65 -288 123 -525 129 -527 5 -2 192
65 415 150 318 121 406 158 407 173 2 10 -41 221 -95 468 -54 248 -98 451 -97
452 0 1 115 27 255 58 277 61 336 76 540 137 176 52 188 57 226 91 65 56 66
139 3 192 -35 29 -101 34 -136 10 -25 -17 -233 -85 -370 -119 -146 -37 -564
-128 -569 -124 -6 7 -307 1408 -303 1412 9 9 497 141 639 172 226 51 260 62
297 99 27 27 33 41 33 74 0 53 -22 97 -60 116 -37 19 -119 19 -147 0 -11 -8
-97 -32 -190 -54 -93 -21 -254 -62 -358 -91 -257 -71 -265 -73 -269 -69 -2 2
-32 132 -65 289 -34 157 -64 291 -66 298 -3 7 -165 -180 -366 -422 l-361 -436
-114 -36 c-63 -21 -117 -35 -119 -32 -3 3 -26 122 -50 264 -68 388 -90 504
-155 789 -62 276 -85 411 -95 564 -7 107 -13 124 -58 151 -39 24 -93 25 -129
2z m1252 -1799 c0 -4 65 -314 145 -689 80 -374 145 -683 145 -687 0 -6 -80
-21 -85 -15 -2 2 -63 287 -135 633 -72 347 -133 636 -136 643 -2 7 -131 -140
-286 -328 -185 -224 -284 -336 -289 -328 -4 7 -9 31 -10 52 -4 39 4 49 266
367 263 319 271 328 320 342 60 18 65 19 65 10z m-2215 -243 c77 -89 139 -166
138 -169 -1 -3 -19 -11 -40 -17 l-39 -12 -48 57 c-27 31 -70 102 -97 160 -61
128 -83 182 -66 160 6 -8 75 -89 152 -179z m-266 -192 c1 -9 -4 -40 -10 -68
-11 -52 -19 -60 -83 -76 l-23 -5 31 142 30 142 27 -59 c15 -33 28 -67 28 -76z
m1526 81 c5 -37 3 -54 -8 -67 -8 -9 -71 -86 -140 -170 -69 -84 -130 -153 -134
-153 -13 -1 -233 265 -225 272 7 7 481 169 493 169 4 0 10 -23 14 -51z m-625
-629 c171 -201 319 -373 328 -382 16 -16 29 -3 202 208 l185 224 9 -55 8 -54
-64 -78 c-79 -96 -320 -387 -323 -391 -4 -5 -736 856 -736 865 1 8 61 33 72
30 4 -1 147 -166 319 -367z m-1099 -379 l-115 -529 -39 -6 c-22 -4 -42 -5 -44
-2 -5 5 217 1029 225 1038 6 5 61 24 83 27 3 1 -46 -237 -110 -528z m2442 37
c19 -82 34 -148 33 -148 0 0 -64 -11 -140 -25 -198 -35 -181 -41 -196 64 -7
48 -11 93 -9 99 2 6 58 77 124 156 l120 145 17 -72 c10 -40 33 -138 51 -219z
m-1910 117 c56 -149 153 -448 162 -497 6 -33 5 -38 -16 -42 -56 -12 -342 -56
-345 -54 -1 2 26 140 62 308 35 168 69 329 75 358 6 30 12 52 14 50 2 -2 24
-57 48 -123z m488 -447 l30 -37 -23 -5 c-76 -16 -77 -15 -88 23 -5 20 -16 59
-25 86 -8 28 -15 55 -14 60 0 10 65 -59 120 -127z m2072 -290 c37 -177 64
-325 60 -328 -4 -4 -25 -11 -45 -14 l-36 -7 -16 73 c-9 40 -40 188 -70 328
l-53 255 26 6 c69 17 60 39 134 -313z m-3263 -210 c-1 -2 -7 -28 -14 -58 l-12
-55 -42 -3 c-47 -3 -47 -2 -31 63 8 32 17 45 33 48 26 5 66 8 66 5z"/>
</g>
</svg>
