<svg width="741" height="741" viewBox="0 0 741 741" fill="none" xmlns="http://www.w3.org/2000/svg">
<circle cx="370.5" cy="370.5" r="370.5" fill="white"/>
<g clip-path="url(#clip0_1238_14)">
<path d="M174.109 155.986C174.897 164.662 179.295 173.694 182.554 181.577C192.405 205.412 202.947 229.077 213.262 252.719C242.928 320.714 277.55 386.716 296.688 458.724C306.741 496.549 315.055 534.848 320.488 573.627C323.161 592.71 323.599 612.232 328.421 630.95C329.631 635.65 330.724 652.539 330.724 639.651" stroke="black" stroke-width="25" stroke-linecap="round"/>
<path d="M367.574 98.4072C367.574 132.841 378.836 165.374 385.232 198.979C404.293 299.126 417.174 400.112 434.878 500.437C440.23 530.764 448.185 563.824 448.185 594.867C448.185 597.662 447.633 610.262 450.488 607.407" stroke="black" stroke-width="25" stroke-linecap="round"/>
<path d="M68.1631 397.818C89.1066 396.073 111.221 386.535 131.116 380.672C210.582 357.253 288.788 330.631 367.319 304.284C438.599 280.369 509.484 257.29 582.153 238.132C595.12 234.713 634.333 227.384 620.923 227.384" stroke="black" stroke-width="25" stroke-linecap="round"/>
<path d="M121.136 503.763C173.272 497.507 224.765 484.669 276.727 476.893C372.341 462.586 468.517 450.781 562.831 429.039C595.005 421.622 629.621 415.747 660.844 404.727C664.493 403.439 670.034 403.237 671.592 400.121" stroke="black" stroke-width="25" stroke-linecap="round"/>
<path d="M133.094 539.4L208.694 175.8L362.294 358.2L513.494 175.8L592.094 539.4L503.894 573L461.294 387L362.294 505.2L261.494 387L222.494 573L133.094 539.4ZM232.694 273L179.294 519H188.894L238.094 293.4L362.294 438.6L485.894 289.2L534.494 521.4L544.694 519L491.294 268.2L362.294 424.2L232.694 273Z" fill="#44B377"/>
</g>
<defs>
<clipPath id="clip0_1238_14">
<rect width="630" height="572" fill="white" transform="translate(55 85)"/>
</clipPath>
</defs>
</svg>
